<svg xmlns="http://www.w3.org/2000/svg" xmlns:xlink="http://www.w3.org/1999/xlink" width="192" zoomAndPan="magnify" viewBox="0 0 144 143.999998" height="192" preserveAspectRatio="xMidYMid meet" version="1.0"><defs><clipPath id="0fb27c6e1f"><path d="M 46.351562 46.351562 L 97.351562 46.351562 L 97.351562 97.351562 L 46.351562 97.351562 Z M 46.351562 46.351562 " clip-rule="nonzero"/></clipPath></defs><path fill="#ffffff" d="M 96.679688 71.851562 C 96.679688 72.664062 96.636719 73.476562 96.558594 74.285156 C 96.480469 75.09375 96.359375 75.898438 96.199219 76.695312 C 96.042969 77.492188 95.84375 78.28125 95.609375 79.058594 C 95.375 79.835938 95.097656 80.601562 94.789062 81.351562 C 94.476562 82.105469 94.128906 82.839844 93.746094 83.554688 C 93.363281 84.273438 92.945312 84.96875 92.496094 85.644531 C 92.042969 86.320312 91.558594 86.972656 91.042969 87.601562 C 90.527344 88.230469 89.980469 88.832031 89.40625 89.40625 C 88.832031 89.980469 88.230469 90.527344 87.601562 91.042969 C 86.972656 91.558594 86.320312 92.042969 85.644531 92.496094 C 84.96875 92.945312 84.273438 93.363281 83.554688 93.746094 C 82.839844 94.128906 82.105469 94.476562 81.351562 94.789062 C 80.601562 95.097656 79.835938 95.371094 79.058594 95.609375 C 78.28125 95.84375 77.492188 96.042969 76.695312 96.199219 C 75.898438 96.359375 75.09375 96.480469 74.285156 96.558594 C 73.476562 96.636719 72.664062 96.679688 71.851562 96.679688 C 71.039062 96.679688 70.230469 96.636719 69.417969 96.558594 C 68.609375 96.480469 67.808594 96.359375 67.011719 96.199219 C 66.210938 96.042969 65.425781 95.84375 64.648438 95.609375 C 63.867188 95.375 63.105469 95.097656 62.351562 94.789062 C 61.601562 94.476562 60.867188 94.128906 60.152344 93.746094 C 59.433594 93.363281 58.738281 92.945312 58.0625 92.496094 C 57.386719 92.042969 56.734375 91.558594 56.105469 91.042969 C 55.476562 90.527344 54.875 89.980469 54.300781 89.40625 C 53.722656 88.832031 53.179688 88.230469 52.664062 87.601562 C 52.148438 86.972656 51.664062 86.320312 51.210938 85.644531 C 50.761719 84.96875 50.34375 84.273438 49.960938 83.554688 C 49.574219 82.839844 49.230469 82.105469 48.917969 81.351562 C 48.605469 80.601562 48.332031 79.835938 48.097656 79.058594 C 47.859375 78.28125 47.664062 77.492188 47.503906 76.695312 C 47.347656 75.898438 47.226562 75.09375 47.148438 74.285156 C 47.066406 73.476562 47.027344 72.664062 47.027344 71.851562 C 47.027344 71.039062 47.066406 70.230469 47.148438 69.417969 C 47.226562 68.609375 47.347656 67.808594 47.503906 67.011719 C 47.664062 66.210938 47.859375 65.425781 48.097656 64.648438 C 48.332031 63.867188 48.605469 63.105469 48.917969 62.351562 C 49.230469 61.601562 49.574219 60.867188 49.960938 60.152344 C 50.34375 59.433594 50.761719 58.738281 51.210938 58.0625 C 51.664062 57.386719 52.148438 56.734375 52.664062 56.105469 C 53.179688 55.476562 53.722656 54.875 54.300781 54.300781 C 54.875 53.722656 55.476562 53.179688 56.105469 52.664062 C 56.734375 52.148438 57.386719 51.664062 58.0625 51.210938 C 58.738281 50.761719 59.433594 50.34375 60.152344 49.960938 C 60.867188 49.574219 61.601562 49.230469 62.351562 48.917969 C 63.105469 48.605469 63.867188 48.332031 64.648438 48.097656 C 65.425781 47.859375 66.210938 47.664062 67.011719 47.503906 C 67.808594 47.347656 68.609375 47.226562 69.417969 47.148438 C 70.230469 47.066406 71.039062 47.027344 71.851562 47.027344 C 72.664062 47.027344 73.476562 47.066406 74.285156 47.148438 C 75.09375 47.226562 75.898438 47.347656 76.695312 47.503906 C 77.492188 47.664062 78.28125 47.859375 79.058594 48.097656 C 79.835938 48.332031 80.601562 48.605469 81.351562 48.917969 C 82.105469 49.230469 82.839844 49.574219 83.554688 49.960938 C 84.273438 50.34375 84.96875 50.761719 85.644531 51.210938 C 86.320312 51.664062 86.972656 52.148438 87.601562 52.664062 C 88.230469 53.179688 88.832031 53.722656 89.40625 54.300781 C 89.980469 54.875 90.527344 55.476562 91.042969 56.105469 C 91.558594 56.734375 92.042969 57.386719 92.496094 58.0625 C 92.945312 58.738281 93.363281 59.433594 93.746094 60.152344 C 94.128906 60.867188 94.476562 61.601562 94.789062 62.351562 C 95.097656 63.105469 95.371094 63.867188 95.609375 64.648438 C 95.84375 65.425781 96.042969 66.210938 96.199219 67.011719 C 96.359375 67.808594 96.480469 68.609375 96.558594 69.417969 C 96.636719 70.230469 96.679688 71.039062 96.679688 71.851562 Z M 96.679688 71.851562 " fill-opacity="1" fill-rule="nonzero"/><g clip-path="url(#0fb27c6e1f)"><path stroke-linecap="butt" transform="matrix(0.0980015, 0, 0, 0.0980015, 46.352072, 46.352073)" fill-opacity="1" fill="#000002" fill-rule="evenodd" stroke-linejoin="miter" d="M 231.496283 506.005697 C 224.082496 503.693871 214.516319 499.508668 206.863378 492.13474 C 206.145914 488.667001 203.475357 473.400977 206.385069 449.166662 C 216.748427 447.054131 263.024808 436.3719 303.441906 406.318161 C 309.819358 410.742517 332.539028 423.816293 379.532873 423.816293 C 384.156525 423.816293 389.09905 423.656856 394.201011 423.377843 C 395.157628 452.873555 383.678216 468.418593 383.558639 468.53817 L 380.369913 472.683513 L 385.990042 473.2814 C 349.080542 495.12417 306.112464 507.679778 260.194814 507.679778 C 250.50906 507.679778 240.903024 507.121751 231.496283 506.005697 Z M 54.840881 398.147051 L 55.956935 398.027474 L 54.203136 394.32058 C 47.427094 379.811878 47.945262 361.636142 48.702585 353.066442 C 56.793976 358.606853 76.404639 369.129647 108.730345 369.129647 C 114.071461 369.129647 119.771308 368.850634 125.790028 368.212889 C 128.380867 372.517668 136.113527 384.87398 147.234208 398.984091 C 159.630379 414.728424 178.842451 435.813873 200.645363 448.249903 C 197.974805 470.371687 199.728604 485.27898 200.804799 491.2977 C 196.061569 492.055022 185.379338 493.091358 170.631482 490.938968 C 123.239047 472.444359 82.861808 439.759921 54.840881 398.147051 Z M 351.153214 30.048532 C 362.433331 38.897245 380.967799 55.319183 390.733271 74.132664 C 359.92221 86.608553 337.043103 105.143021 330.944665 110.3247 C 293.158266 89.358829 228.62643 82.144337 217.306454 81.028283 C 205.548028 56.674391 188.368769 39.814004 181.43329 33.595989 C 187.770883 29.729659 203.31592 21.159959 224.879678 15.260816 C 236.438808 13.586735 248.237093 12.709836 260.194814 12.709836 C 292.321226 12.709836 322.972851 18.848133 351.153214 30.048532 Z M 486.395042 159.789807 C 462.838331 107.016398 421.384897 63.928742 369.7674 38.339218 C 379.811886 47.865536 390.533976 60.14213 397.031005 73.694214 C 402.451838 77.520685 441.274573 105.940203 474.317743 155.40531 C 476.230978 156.003196 480.695194 157.438122 486.395042 159.789807 Z M 492.732634 344.97505 L 474.716334 335.927041 C 474.43732 277.533503 460.28735 238.790486 457.497215 231.73543 C 468.936768 203.634785 473.640139 172.146119 474.955488 161.742902 C 478.223932 162.819097 483.604907 164.772191 489.663485 167.562326 C 501.302334 196.181139 507.679785 227.47051 507.679785 260.194807 C 507.679785 289.969533 502.418388 318.508627 492.732634 344.97505 Z M 306.351618 401.216199 C 311.613016 404.883234 338.03958 421.026158 396.154105 417.438841 C 400.179871 414.92772 427.881926 396.47297 468.896909 336.8438 C 468.737473 280.682369 455.185389 242.098789 452.235818 234.32627 C 443.666118 232.851484 402.850429 225.597133 368.093319 214.436593 C 337.242398 259.437484 299.097268 290.846432 290.726863 297.463038 C 304.876833 337.601122 306.232041 391.729741 306.351618 401.216199 Z M 59.942842 158.275163 C 54.522009 163.297406 29.928962 188.209325 13.746179 237.993304 C 18.569127 183.984263 40.810488 134.917747 74.850135 96.453744 C 60.540729 126.826356 59.863124 152.057148 59.942842 158.275163 Z M 175.175416 30.686277 C 176.29147 29.889095 180.277377 27.258397 186.734547 23.870376 C 160.905869 31.921908 136.870849 44.078925 115.426669 59.623962 C 132.047902 50.29694 153.651518 39.096541 175.175416 30.686277 Z M 328.871994 115.865111 C 292.480662 95.257972 226.952349 87.844184 216.588991 86.807849 L 144.364355 166.605708 C 143.846187 173.023019 141.614079 218.701514 177.566961 274.2252 C 228.028544 276.77618 277.653087 290.647137 286.661237 293.237977 C 293.756152 287.697566 332.578887 256.169041 363.629103 210.610123 C 359.802632 200.764932 336.883667 141.893085 328.871994 115.865111 Z M 48.622866 345.692514 C 51.373142 348.00434 76.324921 367.615003 125.27186 362.393464 C 142.331542 318.229614 166.605716 284.548699 172.345422 276.895757 C 139.182675 225.477556 137.309299 182.071028 138.465212 168.160212 C 127.982276 167.84134 92.348267 166.52599 63.888891 162.579942 C 58.547775 167.642044 31.682761 195.26438 16.29716 249.512576 C 16.655892 254.574678 20.681658 302.08669 48.622866 345.692514 Z M 260.194814 1.070987 C 117.300045 1.070987 1.070995 117.300038 1.070995 260.194807 C 1.070995 403.089576 117.300045 519.358485 260.194814 519.358485 C 403.089583 519.358485 519.358493 403.089576 519.358493 260.194807 C 519.358493 117.300038 403.089583 1.070987 260.194814 1.070987 Z M 260.194814 1.070987 " stroke="#000002" stroke-width="2.137" stroke-opacity="1" stroke-miterlimit="10"/></g></svg>